<?xml version="1.0" encoding="UTF-8"?>
<svg id="Layer_2" data-name="Layer 2" xmlns="http://www.w3.org/2000/svg" xmlns:xlink="http://www.w3.org/1999/xlink" viewBox="0 0 89.33 154.44">
  <defs>
    <style>
      .cls-1 {
        fill: url(#linear-gradient);
      }

      .cls-1, .cls-2, .cls-3, .cls-4, .cls-5, .cls-6, .cls-7, .cls-8, .cls-9, .cls-10, .cls-11 {
        stroke-width: 0px;
      }

      .cls-2 {
        fill: url(#linear-gradient-6);
      }

      .cls-12 {
        fill: none;
        stroke: #0c0c0c;
        stroke-miterlimit: 10;
      }

      .cls-3 {
        fill: url(#linear-gradient-5);
      }

      .cls-4 {
        fill: #0c0c0c;
      }

      .cls-5 {
        fill: url(#linear-gradient-2);
      }

      .cls-6 {
        fill: url(#linear-gradient-7);
      }

      .cls-7 {
        fill: url(#linear-gradient-3);
      }

      .cls-8 {
        fill: url(#linear-gradient-9);
      }

      .cls-9 {
        fill: url(#linear-gradient-8);
      }

      .cls-10 {
        fill: url(#linear-gradient-10);
      }

      .cls-11 {
        fill: url(#linear-gradient-4);
      }
    </style>
    <linearGradient id="linear-gradient" x1="37.69" y1="146.97" x2="51.63" y2="146.97" gradientUnits="userSpaceOnUse">
      <stop offset="0" stop-color="#32e5f0"/>
      <stop offset=".22" stop-color="#f7fefe"/>
      <stop offset=".54" stop-color="#6bedf4"/>
      <stop offset="1" stop-color="#5febf3"/>
    </linearGradient>
    <linearGradient id="linear-gradient-2" x1=".5" y1="48.57" x2="88.83" y2="48.57" xlink:href="#linear-gradient"/>
    <linearGradient id="linear-gradient-3" x1="83.83" y1="62.89" x2="84.34" y2="62.89" xlink:href="#linear-gradient"/>
    <linearGradient id="linear-gradient-4" x1="17.69" y1="75.59" x2="84.18" y2="75.59" xlink:href="#linear-gradient"/>
    <linearGradient id="linear-gradient-5" x1="18.01" y1="79.79" x2="83.83" y2="79.79" gradientUnits="userSpaceOnUse">
      <stop offset="0" stop-color="#32e5f0"/>
      <stop offset=".33" stop-color="#fcfcfc"/>
      <stop offset=".33" stop-color="#f9fbfb"/>
      <stop offset=".5" stop-color="#93f1f6"/>
      <stop offset=".58" stop-color="#6bedf4"/>
      <stop offset="1" stop-color="#26acb4"/>
    </linearGradient>
    <linearGradient id="linear-gradient-6" x1="21.86" y1="105.81" x2="77.62" y2="105.81" xlink:href="#linear-gradient"/>
    <linearGradient id="linear-gradient-7" x1="76.85" y1="77.73" x2="77.47" y2="77.73" xlink:href="#linear-gradient"/>
    <linearGradient id="linear-gradient-8" x1="22.28" y1="87.05" x2="77.27" y2="87.05" xlink:href="#linear-gradient"/>
    <linearGradient id="linear-gradient-9" x1="22.01" y1="96.57" x2="22.6" y2="96.57" xlink:href="#linear-gradient"/>
    <linearGradient id="linear-gradient-10" x1="17.69" y1="88.44" x2="18.01" y2="88.44" xlink:href="#linear-gradient"/>
  </defs>
  <g id="Layer_2-2" data-name="Layer 2">
    <g>
      <g>
        <g>
          <path class="cls-1" d="M44.66,140c3.84,0,6.97,3.13,6.97,6.97s-3.13,6.98-6.97,6.98-6.97-3.13-6.97-6.98,3.13-6.97,6.97-6.97ZM51.06,146.97c0-3.53-2.87-6.39-6.39-6.39s-6.39,2.87-6.39,6.39,2.87,6.4,6.39,6.4,6.39-2.87,6.39-6.4Z"/>
          <path class="cls-4" d="M44.66,140.57c3.53,0,6.39,2.87,6.39,6.39s-2.87,6.4-6.39,6.4-6.39-2.87-6.39-6.4,2.87-6.39,6.39-6.39Z"/>
        </g>
        <g>
          <path class="cls-12" d="M44.66,153.94c-3.84,0-6.97-3.13-6.97-6.98s3.13-6.97,6.97-6.97,6.97,3.13,6.97,6.97-3.13,6.98-6.97,6.98Z"/>
          <path class="cls-12" d="M44.66,140.57c-3.53,0-6.39,2.87-6.39,6.39s2.87,6.4,6.39,6.4,6.39-2.87,6.39-6.4-2.87-6.39-6.39-6.39Z"/>
        </g>
      </g>
      <g>
        <g>
          <path class="cls-5" d="M88.11,34.3c1.92,10.39-.42,18.66-1.97,24.13-.78,2.75-1.77,5.32-3.14,8.39-1.35,3-3.08,6.49-5.37,11.09l-.16-.08c-.04-.18-.08-.36-.12-.54-.02.01-.05.02-.08.04,3.06-6.16,5.1-10.29,6.56-13.98.17-.1.34-.21.51-.31-.03-.21-.05-.42-.08-.63-.03.02-.05.03-.08.05.54-1.42,1-2.78,1.4-4.2,1.12-3.97,2.67-9.44,2.67-16.11,0-2.43-.21-5.02-.71-7.76-2.52-13.64-9.88-23.08-22.5-28.83-6.57-2.99-13.47-4.49-20.38-4.49s-13.8,1.5-20.37,4.49C11.67,11.33,4.31,20.76,1.79,34.4c-1.89,10.26.43,18.45,1.96,23.87,1.55,5.45,3.91,10.21,8.61,19.68l.04.08c1.94,3.9,3.74,7.29,5.29,10.1.1.2.2.41.3.61,0-.01.01-.02.02-.03,1.21,2.19,2.25,4.01,3.06,5.42.42.74.82,1.42,1.21,2.1-.09.11-.18.21-.27.32l-.16.09c-.42-.71-.84-1.44-1.29-2.22-1.89-3.3-5.05-8.83-8.68-16.13l-.03-.07c-4.72-9.51-7.1-14.28-8.65-19.78-1.55-5.48-3.9-13.75-1.97-24.13C3.78,20.45,11.24,10.89,24.05,5.05c13.29-6.06,27.93-6.06,41.23,0,12.81,5.84,20.27,15.4,22.83,29.25Z"/>
          <path class="cls-4" d="M87.54,34.4c.5,2.74.71,5.33.71,7.76,0,6.67-1.55,12.14-2.67,16.11-.4,1.41-.86,2.78-1.4,4.2-8.19,4.86-16.73,7.49-24.7,7.62-2.54.1-5.09,0-7.56-.11-3.92-.16-7.62-.32-11.18.31-5.95,1.04-10.1,3.94-12.33,5.53-5.89,4.19-9.12,9.28-10.72,12.32-1.55-2.81-3.35-6.21-5.29-10.1l-.04-.08c-4.71-9.47-7.07-14.23-8.61-19.68-1.53-5.42-3.86-13.61-1.96-23.87C4.31,20.76,11.67,11.33,24.29,5.57c6.56-2.99,13.47-4.49,20.37-4.49s13.81,1.5,20.38,4.49c12.63,5.75,19.98,15.18,22.5,28.83Z"/>
          <path class="cls-7" d="M84.26,62.42c.03.21.05.42.08.63-.17.1-.34.21-.51.31.12-.3.24-.6.35-.89.03-.01.05-.03.08-.05Z"/>
          <path class="cls-11" d="M84.18,62.47c-.11.3-.23.59-.35.89-3.14,1.89-7.11,3.82-11.89,5.24-2.5.74-6.93,1.84-12.45,2.07-2.55.1-5.12,0-7.6-.11-3.89-.16-7.56-.32-11.06.3-8.48,1.27-16.16,7.28-22.83,17.86-.1-.19-.21-.38-.32-.58,1.6-3.04,4.83-8.13,10.72-12.32,2.23-1.59,6.39-4.49,12.33-5.53,3.56-.63,7.26-.47,11.18-.31,2.47.1,5.02.21,7.56.11,7.97-.13,16.5-2.76,24.7-7.62Z"/>
          <path class="cls-3" d="M83.83,63.36c-1.46,3.69-3.51,7.82-6.56,13.98-10.77,5.48-18.63,4.93-25.56,4.45-5.76-.41-11.2-.79-17.26,2.45-4.53,2.63-7.95,6.82-11.26,10.87-.3.37-.6.75-.91,1.11-.39-.67-.79-1.36-1.21-2.1-.81-1.41-1.85-3.22-3.06-5.42,6.67-10.58,14.35-16.59,22.83-17.86,3.5-.61,7.17-.46,11.06-.3,2.48.1,5.05.21,7.6.11,5.52-.23,9.95-1.33,12.45-2.07,4.78-1.42,8.75-3.35,11.89-5.24Z"/>
          <path class="cls-2" d="M77.62,77.92c-.05.1-.1.2-.15.3l-.03.06c-3.64,7.31-6.8,12.83-8.68,16.13-2.78,4.86-4.63,7.84-9.1,15.05l-3.03,4.87c-2.63,4.24-6.7,10.83-11.72,19.02l-.24.41-.25-.41c-4.98-8.13-9.08-14.74-11.72-19.02l-3-4.84c-3.77-6.07-5.68-9.15-7.84-12.86l.16-.09.45.37c.05-.05.09-.11.13-.16,2.06,3.53,3.97,6.61,7.59,12.44l3,4.85c2.6,4.2,6.6,10.66,11.48,18.61,4.91-8,8.89-14.44,11.47-18.61l3.03-4.88c4.47-7.2,6.32-10.18,9.09-15.03,1.87-3.27,4.99-8.74,8.59-15.96.21-.11.42-.22.61-.32l.16.08Z"/>
          <path class="cls-6" d="M77.34,77.3c.04.18.08.36.12.54-.2.1-.4.21-.61.32l.07-.14.03-.06.31-.63s.05-.03.08-.04Z"/>
          <path class="cls-9" d="M77.27,77.34l-.31.63-.03.06-.07.14c-2.65,1.39-6.56,3.06-11.49,3.88-4.76.79-6.32.83-13.69.31-5.92-.42-11.03-.78-16.94,2.38-4.43,2.58-7.82,6.72-11.09,10.73-.35.43-.7.85-1.04,1.28-.11-.17-.21-.35-.32-.53.31-.36.61-.74.91-1.11,3.31-4.05,6.73-8.24,11.26-10.87,6.06-3.24,11.5-2.86,17.26-2.45,6.93.49,14.79,1.04,25.56-4.45Z"/>
          <path class="cls-4" d="M65.36,82.05c4.93-.82,8.84-2.5,11.49-3.88-3.6,7.22-6.72,12.69-8.59,15.96-2.78,4.85-4.63,7.83-9.09,15.03l-3.03,4.88c-2.58,4.17-6.56,10.61-11.47,18.61-4.88-7.95-8.88-14.41-11.48-18.61l-3-4.85c-3.62-5.84-5.53-8.91-7.59-12.44.34-.43.69-.85,1.04-1.28,3.28-4.01,6.66-8.16,11.09-10.73,5.9-3.16,11.02-2.8,16.94-2.38,7.38.52,8.93.47,13.69-.31Z"/>
          <path class="cls-8" d="M22.6,96.76c-.05.05-.09.11-.13.16l-.45-.37c.09-.11.18-.21.27-.32.1.18.21.36.32.53Z"/>
          <path class="cls-10" d="M18.01,88.71s-.01.02-.02.03c-.1-.2-.2-.41-.3-.61.11.2.22.39.32.58Z"/>
        </g>
        <g>
          <path class="cls-12" d="M77.62,77.92c-.05.1-.1.2-.15.3l-.03.06c-3.64,7.31-6.8,12.83-8.68,16.13-2.78,4.86-4.63,7.84-9.1,15.05l-3.03,4.87c-2.63,4.24-6.7,10.83-11.72,19.02l-.24.41-.25-.41c-4.98-8.13-9.08-14.74-11.72-19.02l-3-4.84c-3.77-6.07-5.68-9.15-7.84-12.86-.42-.71-.84-1.44-1.29-2.22-1.89-3.3-5.05-8.83-8.68-16.13l-.03-.07c-4.72-9.51-7.1-14.28-8.65-19.78-1.55-5.48-3.9-13.75-1.97-24.13C3.78,20.45,11.24,10.89,24.05,5.05c13.29-6.06,27.93-6.06,41.23,0,12.81,5.84,20.27,15.4,22.83,29.25,1.92,10.39-.42,18.66-1.97,24.13-.78,2.75-1.77,5.32-3.14,8.39-1.35,3-3.08,6.49-5.37,11.09Z"/>
          <path class="cls-12" d="M84.18,62.47c.54-1.42,1-2.78,1.4-4.2,1.12-3.97,2.67-9.44,2.67-16.11,0-2.43-.21-5.02-.71-7.76-2.52-13.64-9.88-23.08-22.5-28.83-6.57-2.99-13.47-4.49-20.38-4.49s-13.8,1.5-20.37,4.49C11.67,11.33,4.31,20.76,1.79,34.4c-1.89,10.26.43,18.45,1.96,23.87,1.55,5.45,3.91,10.21,8.61,19.68l.04.08c1.94,3.9,3.74,7.29,5.29,10.1.11.2.22.39.32.58,1.21,2.19,2.25,4.01,3.06,5.42.42.74.82,1.42,1.21,2.1.1.18.21.36.32.53,2.06,3.53,3.97,6.61,7.59,12.44l3,4.85c2.6,4.2,6.6,10.66,11.48,18.61,4.91-8,8.89-14.44,11.47-18.61l3.03-4.88c4.47-7.2,6.32-10.18,9.09-15.03,1.87-3.27,4.99-8.74,8.59-15.96l.07-.14.03-.06.31-.63c3.06-6.16,5.1-10.29,6.56-13.98.12-.3.24-.6.35-.89Z"/>
          <path class="cls-12" d="M17.69,88.13c1.6-3.04,4.83-8.13,10.72-12.32,2.23-1.59,6.39-4.49,12.33-5.53,3.56-.63,7.26-.47,11.18-.31,2.47.1,5.02.21,7.56.11,7.97-.13,16.5-2.76,24.7-7.62.03-.01.05-.03.08-.05.03.21.05.42.08.63-.17.1-.34.21-.51.31-3.14,1.89-7.11,3.82-11.89,5.24-2.5.74-6.93,1.84-12.45,2.07-2.55.1-5.12,0-7.6-.11-3.89-.16-7.56-.32-11.06.3-8.48,1.27-16.16,7.28-22.83,17.86,0,.01-.01.02-.02.03-.1-.2-.2-.41-.3-.61Z"/>
          <path class="cls-12" d="M77.47,77.84c-.2.1-.4.21-.61.32-2.65,1.39-6.56,3.06-11.49,3.88-4.76.79-6.32.83-13.69.31-5.92-.42-11.03-.78-16.94,2.38-4.43,2.58-7.82,6.72-11.09,10.73-.35.43-.7.85-1.04,1.28-.05.05-.09.11-.13.16l-.45-.37c.09-.11.18-.21.27-.32.31-.36.61-.74.91-1.11,3.31-4.05,6.73-8.24,11.26-10.87,6.06-3.24,11.5-2.86,17.26-2.45,6.93.49,14.79,1.04,25.56-4.45.02-.02.05-.03.08-.04.04.18.08.36.12.54Z"/>
        </g>
      </g>
    </g>
  </g>
</svg>