<?xml version="1.0" encoding="UTF-8"?>
<svg id="Layer_2" data-name="Layer 2" xmlns="http://www.w3.org/2000/svg" viewBox="0 0 89.33 154.44">
  <defs>
    <style>
      .cls-1 {
        fill: none;
        stroke: #0c0c0c;
        stroke-miterlimit: 10;
      }

      .cls-2, .cls-3, .cls-4 {
        stroke-width: 0px;
      }

      .cls-3 {
        fill: #fff;
      }

      .cls-4 {
        fill: #32e5f0;
      }
    </style>
  </defs>
  <g id="Layer_2-2" data-name="Layer 2">
    <g>
      <g>
        <g>
          <path class="cls-3" d="M44.66,140c3.84,0,6.97,3.13,6.97,6.97s-3.13,6.98-6.97,6.98-6.97-3.13-6.97-6.98,3.13-6.97,6.97-6.97ZM51.06,146.97c0-3.53-2.87-6.39-6.39-6.39s-6.39,2.87-6.39,6.39,2.87,6.4,6.39,6.4,6.39-2.87,6.39-6.4Z"/>
          <path class="cls-2" d="M44.66,140.57c3.53,0,6.39,2.87,6.39,6.39s-2.87,6.4-6.39,6.4-6.39-2.87-6.39-6.4,2.87-6.39,6.39-6.39Z"/>
        </g>
        <g>
          <path class="cls-1" d="M44.66,153.94c-3.84,0-6.97-3.13-6.97-6.98s3.13-6.97,6.97-6.97,6.97,3.13,6.97,6.97-3.13,6.98-6.97,6.98Z"/>
          <path class="cls-1" d="M44.66,140.57c-3.53,0-6.39,2.87-6.39,6.39s2.87,6.4,6.39,6.4,6.39-2.87,6.39-6.4-2.87-6.39-6.39-6.39Z"/>
        </g>
      </g>
      <g>
        <g>
          <path class="cls-3" d="M88.11,34.3c1.92,10.39-.42,18.66-1.97,24.13-.78,2.76-1.76,5.33-3.14,8.39-1.35,3.01-3.07,6.5-5.37,11.1l-.15-.08c-.04-.19-.09-.36-.13-.54-.03.01-.05.03-.08.04,3.07-6.17,5.11-10.3,6.58-13.99.17-.1.34-.2.5-.3-.02-.21-.05-.42-.08-.63-.03.02-.05.03-.08.05.54-1.42,1-2.78,1.4-4.2,1.12-3.98,2.67-9.44,2.67-16.12,0-2.43-.21-5.01-.71-7.75-2.51-13.64-9.88-23.08-22.5-28.83-6.57-2.99-13.48-4.49-20.38-4.49s-13.81,1.5-20.37,4.49C11.67,11.33,4.31,20.76,1.79,34.4c-1.89,10.25.43,18.44,1.96,23.87,1.55,5.45,3.91,10.21,8.62,19.68l.03.07c1.95,3.93,3.77,7.34,5.33,10.17.09.19.17.36.26.54,0-.01.02-.02.02-.03,1.21,2.19,2.25,4.01,3.06,5.42.42.73.82,1.42,1.21,2.09-.09.11-.18.22-.27.33l-.16.09c-.42-.71-.84-1.45-1.29-2.23-1.89-3.3-5.05-8.82-8.68-16.13l-.03-.08c-4.72-9.51-7.09-14.28-8.65-19.78-1.55-5.47-3.9-13.74-1.97-24.13C3.78,20.45,11.24,10.88,24.05,5.05c13.29-6.06,27.93-6.06,41.23,0,12.81,5.84,20.28,15.4,22.83,29.25Z"/>
          <path class="cls-2" d="M87.54,34.4c.5,2.74.71,5.33.71,7.75,0,6.67-1.55,12.14-2.67,16.12-.4,1.41-.86,2.78-1.4,4.2-8.19,4.86-16.73,7.49-24.7,7.62-2.54.1-5.09,0-7.56-.11-3.92-.16-7.62-.32-11.18.31-5.95,1.04-10.1,3.94-12.33,5.52-5.89,4.19-9.12,9.29-10.72,12.32l.03.07c-1.56-2.83-3.38-6.24-5.33-10.17l-.03-.07c-4.71-9.48-7.07-14.23-8.62-19.68-1.53-5.42-3.86-13.62-1.96-23.87C4.31,20.76,11.67,11.33,24.29,5.57c6.56-2.99,13.47-4.49,20.37-4.49s13.81,1.5,20.38,4.49c12.62,5.75,19.98,15.18,22.5,28.83Z"/>
          <path class="cls-3" d="M84.26,62.42c.03.21.06.42.08.63-.16.1-.33.2-.5.3.12-.3.23-.59.34-.88.03-.01.05-.03.08-.05Z"/>
          <path class="cls-3" d="M84.18,62.47c-.1.29-.22.58-.34.88-3.13,1.89-7.11,3.83-11.9,5.24-2.5.74-6.93,1.85-12.45,2.07-2.55.1-5.12,0-7.6-.11-3.89-.16-7.56-.32-11.06.3-8.48,1.27-16.15,7.28-22.82,17.85-.09-.17-.19-.34-.28-.51l-.03-.07c1.6-3.03,4.83-8.13,10.72-12.32,2.23-1.59,6.38-4.48,12.33-5.52,3.56-.63,7.26-.47,11.18-.31,2.47.1,5.02.21,7.56.11,7.97-.13,16.5-2.76,24.7-7.62Z"/>
          <path class="cls-4" d="M83.85,63.35c-1.47,3.69-3.51,7.82-6.58,13.99-10.77,5.48-18.62,4.93-25.55,4.45-5.76-.41-11.2-.79-17.26,2.45-4.53,2.63-7.95,6.82-11.26,10.87-.3.37-.6.74-.9,1.11-.39-.67-.79-1.36-1.21-2.09-.81-1.41-1.85-3.23-3.06-5.42,6.67-10.58,14.35-16.58,22.82-17.85,3.5-.61,7.17-.46,11.06-.3,2.48.1,5.05.21,7.6.11,5.52-.23,9.95-1.33,12.45-2.07,4.79-1.41,8.76-3.36,11.9-5.24Z"/>
          <path class="cls-3" d="M77.62,77.92c-.05.1-.1.2-.15.3l-.03.06c-3.64,7.31-6.79,12.83-8.68,16.13-2.78,4.86-4.63,7.84-9.11,15.05l-3.02,4.88c-2.63,4.24-6.7,10.83-11.72,19.02l-.25.4-.24-.4c-4.99-8.13-9.08-14.75-11.72-19.02l-3-4.84c-3.76-6.07-5.67-9.15-7.84-12.86l.16-.09.45.37c.05-.05.09-.11.13-.16,2.06,3.53,3.97,6.61,7.59,12.44l3,4.84c2.6,4.2,6.6,10.67,11.47,18.62,4.91-8,8.89-14.44,11.48-18.62l3.02-4.88c4.47-7.2,6.32-10.18,9.09-15.03,1.87-3.27,4.99-8.74,8.59-15.95.21-.11.42-.22.63-.33l.15.08Z"/>
          <path class="cls-3" d="M77.34,77.3c.04.18.09.36.13.54-.2.11-.41.22-.63.33.02-.05.05-.1.08-.15l.03-.06c.1-.21.21-.42.31-.62.03-.01.05-.03.08-.04Z"/>
          <path class="cls-3" d="M77.26,77.34c-.1.2-.2.41-.31.62l-.03.06c-.02.05-.05.1-.08.15-2.65,1.38-6.56,3.06-11.48,3.87-4.76.79-6.32.83-13.7.32-5.92-.42-11.03-.78-16.94,2.38-4.43,2.58-7.82,6.72-11.09,10.73-.35.43-.7.85-1.04,1.28-.1-.18-.21-.36-.31-.54.3-.36.6-.74.9-1.11,3.31-4.05,6.73-8.24,11.26-10.87,6.06-3.24,11.5-2.86,17.26-2.45,6.93.49,14.78,1.04,25.55-4.45Z"/>
          <path class="cls-2" d="M65.37,82.05c4.92-.82,8.83-2.49,11.48-3.87-3.6,7.22-6.72,12.68-8.59,15.95-2.78,4.85-4.63,7.83-9.09,15.03l-3.02,4.88c-2.59,4.17-6.57,10.62-11.48,18.62-4.87-7.95-8.87-14.42-11.47-18.62l-3-4.84c-3.62-5.84-5.53-8.91-7.59-12.44.34-.43.69-.85,1.04-1.28,3.28-4.01,6.66-8.16,11.09-10.73,5.9-3.16,11.02-2.8,16.94-2.38,7.38.52,8.93.47,13.7-.32Z"/>
          <path class="cls-3" d="M22.6,96.76c-.05.05-.09.11-.13.16l-.45-.37c.09-.11.18-.22.27-.33.1.18.21.36.31.54Z"/>
          <path class="cls-3" d="M18.02,88.7s-.02.02-.02.03c-.09-.18-.17-.36-.26-.54.09.17.19.34.28.51Z"/>
        </g>
        <g>
          <path class="cls-1" d="M77.62,77.92c-.05.1-.1.2-.15.3l-.03.06c-3.64,7.31-6.79,12.83-8.68,16.13-2.78,4.86-4.63,7.84-9.11,15.05l-3.02,4.88c-2.63,4.24-6.7,10.83-11.72,19.02l-.25.4-.24-.4c-4.99-8.13-9.08-14.75-11.72-19.02l-3-4.84c-3.76-6.07-5.67-9.15-7.84-12.86-.42-.71-.84-1.45-1.29-2.23-1.89-3.3-5.05-8.82-8.68-16.13l-.03-.08c-4.72-9.51-7.09-14.28-8.65-19.78-1.55-5.47-3.9-13.74-1.97-24.13C3.78,20.45,11.24,10.88,24.05,5.05c13.29-6.06,27.93-6.06,41.23,0,12.81,5.84,20.28,15.4,22.83,29.25,1.92,10.39-.42,18.66-1.97,24.13-.78,2.76-1.76,5.33-3.14,8.39-1.35,3.01-3.07,6.5-5.37,11.1Z"/>
          <path class="cls-1" d="M84.18,62.47c.54-1.42,1-2.78,1.4-4.2,1.12-3.98,2.67-9.44,2.67-16.12,0-2.43-.21-5.01-.71-7.75-2.51-13.64-9.88-23.08-22.5-28.83-6.57-2.99-13.48-4.49-20.38-4.49s-13.81,1.5-20.37,4.49C11.67,11.33,4.31,20.76,1.79,34.4c-1.89,10.25.43,18.44,1.96,23.87,1.55,5.45,3.91,10.21,8.62,19.68l.03.07c1.95,3.93,3.77,7.34,5.33,10.17.09.17.19.34.28.51,1.21,2.19,2.25,4.01,3.06,5.42.42.73.82,1.42,1.21,2.09.1.18.21.36.31.54,2.06,3.53,3.97,6.61,7.59,12.44l3,4.84c2.6,4.2,6.6,10.67,11.47,18.62,4.91-8,8.89-14.44,11.48-18.62l3.02-4.88c4.47-7.2,6.32-10.18,9.09-15.03,1.87-3.27,4.99-8.74,8.59-15.95.02-.05.05-.1.08-.15l.03-.06c.1-.21.21-.42.31-.62,3.07-6.17,5.11-10.3,6.58-13.99.12-.3.23-.59.34-.88Z"/>
          <path class="cls-1" d="M17.73,88.19l-.03-.07c1.6-3.03,4.83-8.13,10.72-12.32,2.23-1.59,6.38-4.48,12.33-5.52,3.56-.63,7.26-.47,11.18-.31,2.47.1,5.02.21,7.56.11,7.97-.13,16.5-2.76,24.7-7.62.03-.01.05-.03.08-.05.03.21.06.42.08.63-.16.1-.33.2-.5.3-3.13,1.89-7.11,3.83-11.9,5.24-2.5.74-6.93,1.85-12.45,2.07-2.55.1-5.12,0-7.6-.11-3.89-.16-7.56-.32-11.06.3-8.48,1.27-16.15,7.28-22.82,17.85,0,.01-.02.02-.02.03-.09-.18-.17-.36-.26-.54Z"/>
          <path class="cls-1" d="M77.47,77.84c-.2.11-.41.22-.63.33-2.65,1.38-6.56,3.06-11.48,3.87-4.76.79-6.32.83-13.7.32-5.92-.42-11.03-.78-16.94,2.38-4.43,2.58-7.82,6.72-11.09,10.73-.35.43-.7.85-1.04,1.28-.05.05-.09.11-.13.16l-.45-.37c.09-.11.18-.22.27-.33.3-.36.6-.74.9-1.11,3.31-4.05,6.73-8.24,11.26-10.87,6.06-3.24,11.5-2.86,17.26-2.45,6.93.49,14.78,1.04,25.55-4.45.03-.01.05-.03.08-.04.04.18.09.36.13.54Z"/>
        </g>
      </g>
    </g>
  </g>
</svg>