<svg width="242" height="365" viewBox="0 0 242 365" fill="none" xmlns="http://www.w3.org/2000/svg">
<g clip-path="url(#clip0_55_632)">
<path d="M116.967 335.694C119.939 338.672 121.778 342.784 121.778 347.346C121.778 351.907 119.939 356.019 116.967 358.997C113.995 361.975 109.891 363.818 105.338 363.818C100.786 363.818 96.7057 361.975 93.7101 358.997C90.7146 356.019 88.8984 351.907 88.8984 347.346C88.8984 342.784 90.7382 338.696 93.7101 335.694C96.6821 332.693 100.786 330.873 105.338 330.873C109.891 330.873 113.971 332.716 116.967 335.694ZM120.434 347.322C120.434 343.162 118.759 339.381 116.023 336.639C113.287 333.898 109.513 332.196 105.362 332.196C101.211 332.196 97.4369 333.898 94.7008 336.639C91.9647 339.381 90.2665 343.162 90.2665 347.322C90.2665 351.481 91.9647 355.263 94.7008 358.004C97.4369 360.746 101.211 362.448 105.362 362.448C109.513 362.448 113.287 360.746 116.023 358.004C118.759 355.263 120.434 351.481 120.434 347.322Z" fill="white"/>
<path d="M116.023 336.663C118.759 339.405 120.434 343.186 120.434 347.346C120.434 351.505 118.759 355.287 116.023 358.028C113.287 360.77 109.513 362.471 105.362 362.471C101.211 362.471 97.4369 360.77 94.7008 358.028C91.9647 355.287 90.2665 351.505 90.2665 347.346C90.2665 343.186 91.9647 339.405 94.7008 336.663C97.4369 333.922 101.211 332.22 105.362 332.22C109.513 332.22 113.287 333.922 116.023 336.663Z" fill="black"/>
<path d="M105.362 365C100.668 365 96.2339 363.157 92.9082 359.824C89.5825 356.492 87.7427 352.049 87.7427 347.322C87.7427 342.595 89.5825 338.176 92.9082 334.843C96.2339 331.511 100.668 329.667 105.362 329.667C110.056 329.667 114.49 331.511 117.816 334.843C121.142 338.176 122.981 342.619 122.981 347.322C122.981 352.025 121.142 356.468 117.816 359.824C114.49 363.157 110.056 365 105.362 365ZM105.362 332.031C101.281 332.031 97.4604 333.614 94.5829 336.521C91.7053 339.405 90.1014 343.257 90.1014 347.322C90.1014 351.387 91.6817 355.239 94.5829 358.146C97.4604 361.029 101.305 362.637 105.362 362.637C109.419 362.637 113.264 361.053 116.141 358.146C119.019 355.263 120.623 351.411 120.623 347.322C120.623 343.233 119.042 339.405 116.141 336.521C113.264 333.638 109.419 332.031 105.362 332.031Z" fill="#0C0C0C"/>
<path d="M105.362 363.629C101.046 363.629 96.9651 361.928 93.8752 358.855C90.809 355.783 89.1107 351.694 89.1107 347.346C89.1107 342.997 90.809 338.908 93.8752 335.836C96.9415 332.764 101.022 331.062 105.362 331.062C109.702 331.062 113.782 332.764 116.872 335.836C119.939 338.908 121.637 342.997 121.637 347.346C121.637 351.694 119.939 355.783 116.872 358.855C113.806 361.928 109.702 363.629 105.362 363.629ZM105.362 333.402C101.659 333.402 98.168 334.843 95.5499 337.49C92.9082 340.114 91.4694 343.611 91.4694 347.322C91.4694 351.032 92.9082 354.53 95.5499 357.177C98.1916 359.824 101.659 361.266 105.362 361.266C109.065 361.266 112.556 359.824 115.198 357.177C117.816 354.554 119.255 351.056 119.255 347.322C119.255 343.588 117.816 340.114 115.198 337.49C112.556 334.843 109.065 333.402 105.362 333.402Z" fill="#0C0C0C"/>
<path d="M207.823 81.0638C210.087 93.3297 209.828 104.367 208.554 113.938C207.28 123.51 204.969 131.64 203.153 138.092C202.233 141.354 201.195 144.497 199.968 147.735C198.742 150.972 197.35 154.305 195.746 157.921C192.491 165.176 188.293 173.614 182.727 184.863L182.679 184.934L182.632 185.005C178.339 193.631 174.353 201.218 170.839 207.599C167.348 214.004 164.376 219.203 162.159 223.103C158.88 228.846 156.144 233.478 152.913 238.819C149.681 244.137 145.955 250.163 140.671 258.695L137.11 264.462L133.548 270.228C130.458 275.239 126.496 281.644 121.826 289.206C117.179 296.769 111.825 305.49 105.881 315.156L105.598 315.629L105.291 316.102L105.008 315.629L104.725 315.156C98.8285 305.561 93.4979 296.84 88.8277 289.277C84.1811 281.691 80.1949 275.262 77.0815 270.228L73.5435 264.509L69.9819 258.766C64.6984 250.234 60.9481 244.184 57.7168 238.866C54.4854 233.525 51.7493 228.869 48.4472 223.126C46.23 219.227 43.2345 214.004 39.7437 207.623C36.2528 201.218 32.2431 193.631 27.9739 185.029L27.9267 184.934L27.8795 184.863C22.3131 173.637 18.1382 165.2 14.8832 157.944C11.6283 150.689 9.31677 144.615 7.477 138.116C5.63723 131.64 3.34932 123.534 2.07563 113.962C0.80195 104.39 0.542496 93.3534 2.80682 81.0874C5.82593 64.7329 11.7226 50.8835 20.662 39.4211C29.6014 27.9587 41.5598 18.8597 56.6789 11.9586C72.4113 4.77397 88.8749 1.18164 105.362 1.18164C121.849 1.18164 138.313 4.77397 153.998 11.935C169.093 18.8361 181.052 27.9351 189.991 39.3974C198.931 50.8598 204.827 64.7092 207.846 81.0638H207.823ZM207.21 113.797C208.46 104.319 208.719 93.4243 206.478 81.3001C203.506 65.1819 197.681 51.5452 188.883 40.2483C180.085 28.9513 168.291 19.9941 153.408 13.1876C145.648 9.64253 137.699 6.99555 129.656 5.22302C121.613 3.45048 113.476 2.5524 105.338 2.5524C97.201 2.5524 89.0636 3.45048 81.0205 5.22302C72.9774 6.99555 65.0287 9.64253 57.2922 13.1876C42.409 19.9941 30.6156 28.9513 21.8177 40.2483C13.0199 51.5452 7.19396 65.1819 4.22203 81.3001C1.98129 93.4243 2.21715 104.319 3.49084 113.797C4.74094 123.274 7.02885 131.309 8.82144 137.738C10.6612 144.19 12.9491 150.216 16.2041 157.425C19.4355 164.656 23.6103 173.046 29.1532 184.249L29.2004 184.343L29.2476 184.414C33.5168 193.041 37.5265 200.603 40.9938 206.985C44.4846 213.366 47.4565 218.589 49.6737 222.488C52.9522 228.231 55.6883 232.863 58.9197 238.205C62.1511 243.546 65.8778 249.573 71.1612 258.104L74.7228 263.824L78.2608 269.543C81.3271 274.506 85.2189 280.793 89.7947 288.214C94.347 295.635 99.5832 304.143 105.338 313.549C111.117 304.096 116.377 295.564 120.929 288.167C125.481 280.769 129.373 274.483 132.416 269.567L135.978 263.8L139.539 258.033C144.799 249.525 148.549 243.522 151.757 238.205C154.988 232.887 157.701 228.255 160.98 222.512C163.197 218.636 166.169 213.413 169.659 207.032C173.15 200.651 177.136 193.088 181.429 184.462V184.391L181.5 184.32C187.066 173.117 191.218 164.704 194.473 157.495C197.704 150.263 200.016 144.237 201.832 137.785C202.728 134.594 203.766 130.955 204.709 126.961C205.653 122.966 206.549 118.594 207.186 113.844L207.21 113.797Z" fill="white"/>
<path d="M206.478 81.3001C208.719 93.4242 208.46 104.319 207.21 113.797C206.573 118.523 205.7 122.919 204.733 126.913C203.766 130.907 202.752 134.523 201.855 137.738C200.039 144.19 197.728 150.216 194.496 157.448C191.241 164.68 187.09 173.094 181.524 184.272L181.476 184.343V184.414C177.16 193.041 173.15 200.603 169.683 206.985C166.192 213.366 163.244 218.565 161.003 222.465C157.725 228.208 154.988 232.84 151.781 238.157C148.549 243.475 144.823 249.478 139.563 257.986L136.001 263.753L132.44 269.519C129.397 274.435 125.505 280.722 120.953 288.119C116.401 295.517 111.141 304.048 105.362 313.502C99.6068 304.096 94.3942 295.588 89.8183 288.167C85.2425 280.746 81.3507 274.459 78.2844 269.496L74.7464 263.776L71.1848 258.057C65.9014 249.525 62.1747 243.475 58.9433 238.157C55.7119 232.816 52.9758 228.184 49.6973 222.441C47.4801 218.541 44.4846 213.318 41.0174 206.937C37.5265 200.556 33.5404 192.993 29.2712 184.367L29.224 184.296L29.1768 184.202C23.6103 172.999 19.4591 164.609 16.2277 157.377C12.9963 150.169 10.6848 144.142 8.84504 137.69C7.05245 131.262 4.76453 123.226 3.51444 113.749C2.24075 104.272 2.00488 93.377 4.24562 81.2529C7.21755 65.1346 13.0199 51.4979 21.8413 40.201C30.6392 28.9041 42.4326 19.9469 57.3158 13.1403C65.0522 9.59526 73.001 6.94828 81.0441 5.17574C89.0871 3.40321 97.2246 2.50513 105.362 2.50513C113.499 2.50513 121.637 3.40321 129.68 5.17574C137.723 6.94828 145.672 9.59526 153.432 13.1403C168.315 19.9469 180.108 28.9041 188.906 40.201C197.704 51.4979 203.53 65.1346 206.502 81.2529L206.478 81.3001Z" fill="black"/>
<path d="M105.338 318.394L103.782 315.794C97.9086 306.199 92.5544 297.478 87.8842 289.915C83.214 282.329 79.2515 275.901 76.138 270.867L67.8591 257.49C63.1889 249.951 59.7688 244.444 56.7969 239.505C53.4947 234.045 50.7115 229.318 47.5273 223.741C45.2866 219.794 42.291 214.547 38.8238 208.214C34.5074 200.273 30.6628 192.875 27.0304 185.572C21.747 174.937 17.2655 165.885 13.9162 158.417C10.4725 150.736 8.23178 144.757 6.43919 138.423C4.57583 131.876 2.28792 123.746 1.01424 114.104C-0.495316 102.665 -0.259448 91.7936 1.76901 80.8511C4.8117 64.3548 10.8971 50.1745 19.8365 38.6885C28.9409 27.0134 40.8758 17.9144 56.278 10.8715C71.9868 3.66323 88.5211 0 105.362 0C122.203 0 138.714 3.66324 154.47 10.8479C169.683 17.7962 181.948 27.1552 190.911 38.6649C199.874 50.1745 205.959 64.3548 209.002 80.8275C211.007 91.7936 211.266 102.665 209.757 114.08C208.507 123.557 206.242 131.569 204.45 138.021L204.332 138.423C203.436 141.566 202.398 144.757 201.124 148.16C199.945 151.327 198.553 154.683 196.855 158.417C193.529 165.791 189.26 174.441 183.835 185.407C179.967 193.206 175.981 200.816 171.947 208.214C168.433 214.689 165.437 219.912 163.244 223.741C160.012 229.413 157.229 234.116 153.974 239.481C150.743 244.799 147.016 250.825 141.733 259.357L134.61 270.89C131.52 275.901 127.557 282.305 122.887 289.868C119.089 296.037 114.82 302.985 110.174 310.571L105.338 318.418V318.394ZM105.362 2.36338C88.8749 2.36338 72.6708 5.95571 57.245 12.9986C42.1731 19.876 30.5448 28.7387 21.6762 40.1065C12.8312 51.4507 7.07603 64.922 4.05693 81.2529C2.07564 91.9354 1.83977 102.571 3.32574 113.749C4.57583 123.226 6.86375 131.262 8.67993 137.714C10.4489 143.953 12.6425 149.838 16.039 157.401C19.3647 164.822 23.8462 173.85 29.0117 184.296C32.7148 191.741 36.5595 199.115 40.8522 207.032C44.2959 213.366 47.2914 218.589 49.485 222.417C52.74 228.113 55.4996 232.816 58.8018 238.252C61.7737 243.168 65.1938 248.698 69.8639 256.214L78.1429 269.614C81.2563 274.648 85.2189 281.076 89.8891 288.663C94.4413 296.037 99.654 304.521 105.362 313.857L108.169 309.295C112.815 301.709 117.085 294.76 120.882 288.592C125.529 281.029 129.491 274.624 132.605 269.614L139.728 258.081C145.011 249.573 148.738 243.546 151.946 238.228C155.201 232.887 157.937 228.208 161.168 222.559C163.338 218.731 166.334 213.508 169.848 207.055C173.881 199.705 177.82 192.095 181.618 184.485L181.736 184.249C187.114 173.401 191.383 164.775 194.685 157.425C196.336 153.714 197.728 150.405 198.883 147.309C200.134 143.977 201.171 140.857 202.02 137.761L202.138 137.359C203.931 130.978 206.148 123.061 207.398 113.749C208.884 102.594 208.648 91.959 206.667 81.2293C203.695 65.1347 197.775 51.2853 189.048 40.0829C180.203 28.715 168.574 19.8524 153.503 12.9749C138.053 5.90844 121.849 2.33974 105.362 2.33974V2.36338Z" fill="#0C0C0C"/>
<path d="M105.362 315.794L104.348 314.14C98.5926 304.734 93.3799 296.226 88.8041 288.828L70.1942 258.719C64.9107 250.187 61.184 244.137 57.929 238.796C54.6977 233.478 51.938 228.775 48.683 223.055L48.5415 222.796C46.3715 218.99 43.3996 213.791 40.0031 207.528C35.8283 199.894 31.9836 192.497 28.2333 184.934L28.1154 184.698C22.714 173.85 18.4448 165.224 15.1663 157.897C11.7462 150.263 9.50546 144.331 7.73646 138.045L7.64211 137.761C5.84952 131.356 3.60878 123.368 2.35868 113.962C0.849127 102.689 1.08499 91.9353 3.08987 81.0874C6.08538 64.851 12.0764 50.8598 20.8979 39.5156C29.8608 28.0296 41.607 19.0488 56.8205 12.1004C64.5805 8.55537 72.6472 5.83749 80.7846 4.06495C96.9651 0.496253 113.759 0.496253 129.916 4.06495C138.053 5.86112 146.12 8.55537 153.904 12.1004C169.117 19.0488 180.863 28.006 189.826 39.5156C198.671 50.8835 204.662 64.8747 207.634 81.0874C209.639 91.8881 209.875 102.641 208.365 113.962C207.799 118.192 206.997 122.541 205.865 127.197C204.898 131.215 203.884 134.854 202.964 138.068C201.195 144.308 198.978 150.24 195.534 157.921C192.374 164.94 188.529 172.763 182.538 184.792C178.693 192.521 174.849 199.918 170.674 207.552C167.159 213.98 164.187 219.203 161.994 223.055C158.88 228.515 156.191 233.076 152.748 238.772C149.776 243.664 146.403 249.147 141.756 256.615L133.383 270.158C130.34 275.073 126.472 281.36 121.896 288.757C117.344 296.155 112.084 304.687 106.305 314.14L105.291 315.794H105.362ZM105.362 3.73408C97.3189 3.73408 89.2287 4.63216 81.3035 6.38106C73.3076 8.12996 65.406 10.7769 57.8111 14.2747C42.9515 21.0576 31.4883 29.8021 22.7848 40.9809C14.0577 52.1597 8.39688 65.4419 5.42496 81.5365C3.46726 92.148 3.23139 102.641 4.71735 113.655C5.94386 122.896 8.16102 130.789 9.93002 137.123L10.0008 137.407C11.7462 143.575 13.9398 149.413 17.3127 156.928C20.5676 164.207 24.8368 172.81 30.2382 183.705C34.0593 191.41 37.9039 198.784 42.0552 206.394C45.4517 212.633 48.4236 217.832 50.57 221.614L50.7115 221.874C53.9665 227.57 56.7261 232.249 59.9339 237.543C63.1653 242.884 66.892 248.911 72.1754 257.443L90.7854 287.552C95.0782 294.524 99.9606 302.489 105.315 311.233C110.716 302.441 115.599 294.453 119.915 287.481C124.467 280.084 128.359 273.797 131.402 268.881L139.775 255.339C144.398 247.871 147.771 242.412 150.743 237.519C154.187 231.847 156.852 227.31 159.965 221.85C162.159 218.022 165.131 212.798 168.622 206.394C172.773 198.784 176.618 191.41 180.368 183.847C186.406 171.676 190.251 163.877 193.388 156.905C196.784 149.342 198.954 143.481 200.676 137.359C201.572 134.169 202.587 130.553 203.554 126.582C204.639 121.997 205.441 117.767 206.007 113.584C207.469 102.523 207.233 92.0062 205.299 81.4656C202.374 65.6309 196.548 51.9706 187.939 40.91C179.212 29.7312 167.749 20.9867 152.913 14.2038C145.294 10.7297 137.393 8.05906 129.397 6.31016C121.472 4.56126 113.381 3.66318 105.338 3.66318L105.362 3.73408Z" fill="#0C0C0C"/>
<path d="M26.6294 190.417C21.6055 197.484 17.9259 203.487 15.4022 207.883C14.9776 208.615 12.7368 212.491 10.7791 217.951C9.55264 221.33 8.79786 224.804 8.89221 227.901C9.01014 231.02 10.0715 233.454 12.0057 235.322C13.9869 237.212 16.9589 238.512 20.1431 239.481C26.653 241.348 34.0829 241.655 41.4183 241.395C56.2308 240.97 71.1848 238.181 85.8793 234.849C100.621 231.375 114.962 226.837 128.878 221.118C156.64 209.466 183.057 193.726 205.959 174.134C211.597 169.171 217.045 163.948 221.904 158.323C226.739 152.721 231.056 146.624 233.745 140.125C234.995 136.887 235.75 133.507 235.443 130.388C235.16 127.244 233.721 124.385 231.244 121.998C228.65 119.492 226.338 118.145 222.187 116.231C219.852 115.167 216.574 113.844 212.446 112.804C212.611 112 212.8 111.173 212.965 110.37C214.12 110.559 227.801 112.757 234.594 118.098C237.495 120.367 239.122 122.99 239.122 122.99C240.396 124.905 241.151 127.173 241.623 129.419C242.472 133.956 241.788 138.423 240.632 142.488C238.155 150.642 233.674 157.543 228.909 163.995C224.121 170.47 218.696 176.308 212.965 181.815C207.257 187.321 201.242 192.473 195.039 197.366C188.788 202.211 182.326 206.725 175.698 211.002C162.466 219.605 148.479 227.026 133.902 233.194C126.614 236.267 119.207 239.15 111.612 241.443C104.041 243.782 96.399 245.744 88.7098 247.469C80.9969 249.171 73.2133 250.542 65.3353 251.44C57.4573 252.361 49.5086 252.976 41.4419 252.811C33.3988 252.551 25.1907 251.865 16.9589 248.958C12.8784 247.469 8.67993 245.271 5.33061 241.514C3.70313 239.599 2.35868 237.354 1.62749 234.92C1.13217 233.738 1.085 232.485 0.84913 231.28C0.684023 230.075 0.77837 228.893 0.754783 227.711C1.01424 223.032 2.59455 218.967 4.36355 215.256C6.17973 211.546 8.30254 208.119 10.5905 204.858C11.3688 203.747 13.9869 200.06 17.9967 195.617C20.8035 192.497 23.4216 189.968 25.5916 188.054C25.9454 188.834 26.2756 189.637 26.6294 190.417Z" fill="url(#paint0_linear_55_632)"/>
<path d="M100.126 9.9498C120.741 8.46088 142.157 14.4166 159.446 25.879C197.751 50.3399 206.195 99.9945 191.784 140.763C185.109 160.497 174.471 178.6 160.626 193.466L158.715 192.095C168.079 174.394 175.627 156.172 179.943 137.383C191.996 87.4922 176.735 42.399 127.911 21.1286C119.16 17.0399 109.749 14.393 99.9842 12.3368L100.102 9.97344L100.126 9.9498Z" fill="#FCFCFC"/>
</g>
<defs>
<linearGradient id="paint0_linear_55_632" x1="-40.341" y1="216.312" x2="215.343" y2="183.442" gradientUnits="userSpaceOnUse">
<stop stop-color="#32E5F0"/>
<stop offset="0.404" stop-color="#F9FBFB"/>
<stop offset="0.509" stop-color="#93F1F6"/>
<stop offset="0.624" stop-color="#6BEDF4"/>
<stop offset="1" stop-color="#26ACB4"/>
</linearGradient>
<clipPath id="clip0_55_632">
<rect width="242" height="365" fill="white"/>
</clipPath>
</defs>
</svg>
